<svg width="18" height="18" viewBox="0 0 18 18" fill="none" xmlns="http://www.w3.org/2000/svg">
<path fill-rule="evenodd" clip-rule="evenodd" d="M15 2.625C15.2984 2.625 15.5845 2.74353 15.7955 2.9545C16.0065 3.16548 16.125 3.45163 16.125 3.75V14.25C16.125 14.5484 16.0065 14.8345 15.7955 15.0455C15.5845 15.2565 15.2984 15.375 15 15.375C14.7016 15.375 14.4155 15.2565 14.2045 15.0455C13.9935 14.8345 13.875 14.5484 13.875 14.25V3.75C13.875 3.45163 13.9935 3.16548 14.2045 2.9545C14.4155 2.74353 14.7016 2.625 15 2.625Z" fill="#D9D9D9"/>
<path fill-rule="evenodd" clip-rule="evenodd" d="M12 4.875C12.2984 4.875 12.5845 4.99353 12.7955 5.2045C13.0065 5.41548 13.125 5.70163 13.125 6V14.25C13.125 14.5484 13.0065 14.8345 12.7955 15.0455C12.5845 15.2565 12.2984 15.375 12 15.375C11.7016 15.375 11.4155 15.2565 11.2045 15.0455C10.9935 14.8345 10.875 14.5484 10.875 14.25V6C10.875 5.70163 10.9935 5.41548 11.2045 5.2045C11.4155 4.99353 11.7016 4.875 12 4.875Z" fill="#D9D9D9"/>
<path fill-rule="evenodd" clip-rule="evenodd" d="M9 7.125C9.29837 7.125 9.58452 7.24353 9.7955 7.4545C10.0065 7.66548 10.125 7.95163 10.125 8.25V14.25C10.125 14.5484 10.0065 14.8345 9.7955 15.0455C9.58452 15.2565 9.29837 15.375 9 15.375C8.70163 15.375 8.41548 15.2565 8.2045 15.0455C7.99353 14.8345 7.875 14.5484 7.875 14.25V8.25C7.875 7.95163 7.99353 7.66548 8.2045 7.4545C8.41548 7.24353 8.70163 7.125 9 7.125Z" fill="#00C1FF"/>
<path fill-rule="evenodd" clip-rule="evenodd" d="M6 9.375C6.29837 9.375 6.58452 9.49353 6.7955 9.7045C7.00647 9.91548 7.125 10.2016 7.125 10.5V14.25C7.125 14.5484 7.00647 14.8345 6.7955 15.0455C6.58452 15.2565 6.29837 15.375 6 15.375C5.70163 15.375 5.41548 15.2565 5.2045 15.0455C4.99353 14.8345 4.875 14.5484 4.875 14.25V10.5C4.875 10.2016 4.99353 9.91548 5.2045 9.7045C5.41548 9.49353 5.70163 9.375 6 9.375Z" fill="#00C1FF"/>
<path fill-rule="evenodd" clip-rule="evenodd" d="M3 11.625C3.29837 11.625 3.58452 11.7435 3.7955 11.9545C4.00647 12.1655 4.125 12.4516 4.125 12.75V14.25C4.125 14.5484 4.00647 14.8345 3.7955 15.0455C3.58452 15.2565 3.29837 15.375 3 15.375C2.70163 15.375 2.41548 15.2565 2.2045 15.0455C1.99353 14.8345 1.875 14.5484 1.875 14.25V12.75C1.875 12.4516 1.99353 12.1655 2.2045 11.9545C2.41548 11.7435 2.70163 11.625 3 11.625Z" fill="#00C1FF"/>
</svg>
